<svg width="51" height="60" viewBox="0 0 51 60" fill="none" xmlns="http://www.w3.org/2000/svg">
<path d="M6.07097 23.1295L0.647947 13.535C0.322363 12.9589 0.63594 12.2312 1.27823 12.0722L48.3292 0.425931C49.0851 0.23883 49.7554 0.949326 49.5246 1.69304L45.7586 13.8278C45.6541 14.1645 45.3801 14.4213 45.0373 14.5037L7.17537 23.6098C6.74131 23.7142 6.29064 23.5182 6.07097 23.1295Z" fill="url(#paint0_linear_18_2)"/>
<path d="M6.07097 23.1295L0.647947 13.535C0.322363 12.9589 0.63594 12.2312 1.27823 12.0722L48.3292 0.425931C49.0851 0.23883 49.7554 0.949326 49.5246 1.69304L45.7586 13.8278C45.6541 14.1645 45.3801 14.4213 45.0373 14.5037L7.17537 23.6098C6.74131 23.7142 6.29064 23.5182 6.07097 23.1295Z" fill="url(#paint1_linear_18_2)" fill-opacity="0.2"/>
<path d="M14.4902 39.4943L8.60478 29.405C8.2676 28.827 8.58228 28.0873 9.23256 27.9294L40.7974 20.2636C41.5743 20.075 42.2475 20.8291 41.9723 21.5796L37.3494 34.1876C37.2346 34.5004 36.9716 34.7356 36.6479 34.8147L15.5914 39.9618C15.1613 40.067 14.7133 39.8768 14.4902 39.4943Z" fill="url(#paint2_linear_18_2)"/>
<path d="M14.4902 39.4943L8.60478 29.405C8.2676 28.827 8.58228 28.0873 9.23256 27.9294L40.7974 20.2636C41.5743 20.075 42.2475 20.8291 41.9723 21.5796L37.3494 34.1876C37.2346 34.5004 36.9716 34.7356 36.6479 34.8147L15.5914 39.9618C15.1613 40.067 14.7133 39.8768 14.4902 39.4943Z" fill="url(#paint3_linear_18_2)" fill-opacity="0.2"/>
<path d="M25.6974 57.7661L17.5981 44.8073C17.2323 44.222 17.5554 43.4508 18.2292 43.3011L29.2774 40.8459C29.8065 40.7284 30.333 41.0537 30.4644 41.5796L31.6382 46.2746C31.6881 46.4741 31.6752 46.6842 31.6014 46.8761L27.4787 57.5951C27.1827 58.3649 26.1345 58.4655 25.6974 57.7661Z" fill="url(#paint4_linear_18_2)"/>
<path d="M25.6974 57.7661L17.5981 44.8073C17.2323 44.222 17.5554 43.4508 18.2292 43.3011L29.2774 40.8459C29.8065 40.7284 30.333 41.0537 30.4644 41.5796L31.6382 46.2746C31.6881 46.4741 31.6752 46.6842 31.6014 46.8761L27.4787 57.5951C27.1827 58.3649 26.1345 58.4655 25.6974 57.7661Z" fill="url(#paint5_linear_18_2)" fill-opacity="0.2"/>
<defs>
<linearGradient id="paint0_linear_18_2" x1="25.025" y1="0" x2="25.025" y2="23.7861" gradientUnits="userSpaceOnUse">
<stop stop-color="#9ADF46"/>
<stop offset="1" stop-color="#C4FF00"/>
</linearGradient>
<linearGradient id="paint1_linear_18_2" x1="9.5" y1="-0.800001" x2="143" y2="-0.799998" gradientUnits="userSpaceOnUse">
<stop stop-opacity="0"/>
<stop offset="1"/>
</linearGradient>
<linearGradient id="paint2_linear_18_2" x1="25.2728" y1="19.8218" x2="25.2728" y2="40.1391" gradientUnits="userSpaceOnUse">
<stop stop-color="#9ADF46"/>
<stop offset="1" stop-color="#C4FF00"/>
</linearGradient>
<linearGradient id="paint3_linear_18_2" x1="14.5129" y1="19.1384" x2="107.038" y2="19.1384" gradientUnits="userSpaceOnUse">
<stop stop-opacity="0"/>
<stop offset="1"/>
</linearGradient>
<linearGradient id="paint4_linear_18_2" x1="24.2817" y1="40.6346" x2="24.2817" y2="59.4653" gradientUnits="userSpaceOnUse">
<stop stop-color="#9ADF46"/>
<stop offset="1" stop-color="#C4FF00"/>
</linearGradient>
<linearGradient id="paint5_linear_18_2" x1="19.6703" y1="40.0013" x2="59.3238" y2="40.0013" gradientUnits="userSpaceOnUse">
<stop stop-opacity="0"/>
<stop offset="1"/>
</linearGradient>
</defs>
</svg>
